<?xml version="1.0" encoding="UTF-8"?>
<svg width="1200pt" height="1200pt" version="1.1" viewBox="0 0 1200 1200" xmlns="http://www.w3.org/2000/svg">
 <g fill="#010101">
  <path d="m1098.9 266.63-8.6992-6.3359-26.941-24.504-37.727-29.41-37.754-17.652-67.645-26.953-56.398-15.203-40.668-6.8516-53.449-6.3711h-63.73l-72.551 1.957-46.094 6.875-45.109 9.793-54.898 13.727-48.023 14.711-48.047 17.652-46.078 25.5-54.898 25.477-31.379 21.562-31.367 33.336-3.9102 15.695 9.793 18.613 12.77 17.652 31.344 26.484 47.062 19.598 40.199 8.832 55.883 10.777 72.551 15.695 59.305 11.762 69.133 16.668 168.62 45.109 117.64 39.203 119.63 46.078 74.496 33.324-8.8086 23.555-57.863-23.555-63.707-27.422-85.32-29.41-67.645-24.504-76.453-19.598-81.395-23.531-74.496-18.637-88.727-21.562-65.195-14.711-89.207-14.711-49.043-15.684-44.113-21.562-21.551-18.637-24.516-32.34-12.742-21.562-41.172 32.352-33.324 38.23 3.9102 15.684 20.578 58.824 27.445 50.988 41.172 67.656 84.312 101.96 93.156 95.062 87.254 71.578 86.27 60.781 91.176 51 81.371 33.336 76.477 22.523 46.066 8.7852 43.141 1.0195 61.766 1.9688 31.367-3.9375-29.41 14.723-33.336 5.8672-53.914 0.98438-50.988-4.8828-61.754-12.742-53.891-17.664-64.703-27.457-127.45-75.52-90.203-64.715-89.207-73.535-100.01-108.82-53.914-74.52-43.141-76.477-28.441-59.797-6.8281-35.293h-8.8594l-33.324 40.211-15.684 36.266 12.742 60.781 17.641 77.438 22.547 94.152 28.43 102.45 39.203 85.789 63.742 92.137 55.883 49.992 36.277 29.41 63.73 41.184-71.578-37.246-84.312-69.613-47.051-59.797-39.227-61.754-41.172-106.85-29.41-97.078-13.727-71.555-8.8086-32.363-9.8047-39.203-7.8594-21.598h-5.8789l-12.742 28.414-6.8633 50.988-4.7148 53.531c34.328 298.75 287.96 530.77 595.89 530.77 331.37 0 600-268.62 600-599.98 0-123.38-37.273-238.02-101.12-333.38z"/>
  <path d="m39.684 470.6 23.531-33.816 26.965-37.262v-4.4023l1.4648-29.41v-48.062l2.4609-36.758 2.3633-7.0078c-27.562 42.469-49.883 88.621-66.07 137.57l4.3906 26.785z"/>
  <path d="m18.145 527.96 9.3008-25.5-1.4531-41.172 2.1602-43.152c-18.242 57.375-28.152 118.46-28.152 181.88 0 5.3984 0.26562 10.754 0.42188 16.129l5.4609-40.141z"/>
  <path d="m110.8 375.01 4.8945-2.9414 30.395-34.309 40.68-32.352-0.97266-4.9062 0.48047-41.172 1.9688-25.5 11.281-27.445 27.938-49.02 41.184-40.199 41.652-35.773 93.648-48.445c-118.95 41.125-220.86 118.56-292.57 219.1l-5.0039 25.895v40.691l1.4648 25.5z"/>
  <path d="m315.18 91.688-42.156 34.801-34.309 42.637-28.934 47.566-6.8633 25.477 3.4453 17.16 12.254 8.3398 14.207-1.4766 25.488-15.684 68.137-38.723 76.477-34.801 88.234-30.406 72.562-18.133 62.723-7.8477 67.176-2.4492h73.547l71.039 8.3398 60.793 15.684 48.527 16.188 49.992 28.906 56.832 35.305 40.5 38.258c-108.13-157.48-289.38-260.82-494.85-260.82-66.793 0-130.97 11.074-190.98 31.223l-60.48 34.957z"/>
 </g>
</svg>
